HIERARCHY
ROOT Hips
{
 OFFSET 0.000000 0.000000 0.000000
 CHANNELS 6 Xposition Yposition Zposition Yrotation Xrotation Zrotation
 JOINT Chest
 {
  OFFSET 0.000000 9.585900 0.002600
  CHANNELS 3 Yrotation Xrotation Zrotation
  JOINT Chest2
  {
   OFFSET 0.000000 9.601200 -0.005300
   CHANNELS 3 Yrotation Xrotation Zrotation
   JOINT Chest3
   {
    OFFSET 0.000000 9.561800 0.000000
    CHANNELS 3 Yrotation Xrotation Zrotation
    JOINT Chest4
    {
     OFFSET 0.000000 9.552100 0.000000
     CHANNELS 3 Yrotation Xrotation Zrotation
     JOINT Neck
     {
      OFFSET 0.000000 14.453000 0.000000
      CHANNELS 3 Yrotation Xrotation Zrotation
      JOINT Head
      {
       OFFSET 0.000000 8.936500 -0.011300
       CHANNELS 3 Yrotation Xrotation Zrotation
       End Site
       {
        OFFSET 0.000000 17.073600 -0.006000
       }
      }
     }
     JOINT RightCollar
     {
      OFFSET -2.921100 9.558500 0.000000
      CHANNELS 3 Yrotation Xrotation Zrotation
      JOINT RightShoulder
      {
       OFFSET -13.519700 0.000000 0.000000
       CHANNELS 3 Yrotation Xrotation Zrotation
       JOINT RightElbow
       {
        OFFSET 0.000000 -29.696600 0.000000
        CHANNELS 3 Yrotation Xrotation Zrotation
        JOINT RightWrist
        {
         OFFSET 0.000000 -24.004700 0.000000
         CHANNELS 3 Yrotation Xrotation Zrotation
         End Site
         {
          OFFSET 0.000000 -17.728500 0.000000
         }
        }
       }
      }
     }
     JOINT LeftCollar
     {
      OFFSET 2.921100 9.558500 0.000000
      CHANNELS 3 Yrotation Xrotation Zrotation
      JOINT LeftShoulder
      {
       OFFSET 13.519700 0.000000 0.000000
       CHANNELS 3 Yrotation Xrotation Zrotation
       JOINT LeftElbow
       {
        OFFSET 0.000000 -29.696600 0.000000
        CHANNELS 3 Yrotation Xrotation Zrotation
        JOINT LeftWrist
        {
         OFFSET 0.000000 -24.004700 0.000000
         CHANNELS 3 Yrotation Xrotation Zrotation
         End Site
         {
          OFFSET 0.000000 -17.728500 0.000000
         }
        }
       }
      }
     }
    }
   }
  }
 }
 JOINT RightHip
 {
  OFFSET -7.771700 -0.012900 -0.001300
  CHANNELS 3 Yrotation Xrotation Zrotation
  JOINT RightKnee
  {
   OFFSET 0.000000 -40.869800 0.001200
   CHANNELS 3 Yrotation Xrotation Zrotation
   JOINT RightAnkle
   {
    OFFSET 0.000000 -39.717900 0.002100
    CHANNELS 3 Yrotation Xrotation Zrotation
    JOINT RightToe
    {
     OFFSET 0.000000 -4.965400 11.033500
     CHANNELS 3 Yrotation Xrotation Zrotation
     End Site
     {
      OFFSET 0.000000 -1.423100 5.872300
     }
    }
   }
  }
 }
 JOINT LeftHip
 {
  OFFSET 7.771700 -0.012900 -0.001300
  CHANNELS 3 Yrotation Xrotation Zrotation
  JOINT LeftKnee
  {
   OFFSET 0.000000 -40.869800 0.001200
   CHANNELS 3 Yrotation Xrotation Zrotation
   JOINT LeftAnkle
   {
    OFFSET 0.000000 -39.717900 0.002100
    CHANNELS 3 Yrotation Xrotation Zrotation
    JOINT LeftToe
    {
     OFFSET 0.000000 -4.965400 11.033500
     CHANNELS 3 Yrotation Xrotation Zrotation
     End Site
     {
      OFFSET 0.000000 -1.423100 5.872300
     }
    }
   }
  }
 }
}
MOTION
Frames: 5
Frame Time: 0.008333
-188.432735 57.455653 -59.267811 158.404054 -11.496733 0.620991 2.778096 7.994466 1.518666 0.131204 0.413002 0.037000 0.228778 0.719390 0.065023 2.472686 7.588001 0.837593 0.987411 20.409913 -1.917193 2.360718 2.162065 -3.778306 4.538544 9.558648 0.148638 -3.619708 -16.595793 -13.989525 82.243999 -82.398004 -68.719370 -0.411111 5.822327 -23.469370 -6.344536 8.733311 -2.856747 20.305348 -9.515055 3.594916 103.857734 -87.782265 -124.308062 -3.035011 8.741874 12.810697 -14.456727 -60.779368 7.031564 -29.147325 71.641263 -29.474083 -2.766949 -4.820551 -2.252419 -0.311800 0.736219 -0.110840 4.334394 -63.312592 14.366215 36.137769 67.706854 28.682732 -15.745744 -9.926677 6.167126 -0.194377 -0.885632 -0.062455
-188.436958 57.455696 -59.271331 158.371452 -11.507823 0.601218 2.681763 7.985479 1.537944 0.125921 0.411348 0.038735 0.219670 0.716637 0.068105 2.386102 7.585609 0.867287 1.132674 20.404789 -2.024042 2.524862 2.036894 -4.069345 4.636558 9.508550 0.141092 -3.357577 -17.062677 -14.911568 80.974257 -82.517750 -67.087888 -0.412391 5.790109 -23.456169 -6.306930 8.648796 -2.874509 20.493329 -9.205885 4.053194 103.105705 -87.624556 -123.829821 -2.999146 8.602897 12.637085 -14.439505 -60.761862 7.073010 -29.127988 71.633804 -29.480203 -2.763685 -4.809054 -2.220257 -0.336083 0.734985 -0.121611 4.324543 -63.303256 14.430416 36.136882 67.717176 28.674226 -15.772417 -9.930763 6.167133 -0.176079 -0.883447 -0.052452
-188.441855 57.455811 -59.275988 158.372846 -11.526256 0.580358 2.547082 7.983667 1.550710 0.120860 0.409734 0.040489 0.210861 0.714058 0.071092 2.301738 7.583048 0.896490 1.207240 20.327100 -2.179102 2.777455 1.963174 -4.350973 4.728276 9.454079 0.132095 -3.047386 -17.558866 -15.871473 79.295278 -82.649077 -65.034927 -0.428221 5.766283 -23.467836 -6.267287 8.585000 -2.872814 20.696362 -8.919430 4.585529 101.135909 -87.430642 -122.188540 -2.951097 8.453652 12.460112 -14.410426 -60.742934 7.083018 -29.163098 71.620969 -29.528599 -2.810360 -4.750076 -2.217531 -0.299507 0.680237 -0.104710 4.282426 -63.287725 14.487551 36.131094 67.727991 28.663624 -15.822760 -9.978441 6.157872 -0.146421 -0.833549 -0.034615
-188.442760 57.455441 -59.277672 158.333771 -11.537603 0.539763 2.453334 7.973919 1.590665 0.116062 0.408265 0.042193 0.202484 0.711657 0.074025 2.220946 7.580600 0.925193 1.287310 20.243300 -2.335290 3.035548 1.883334 -4.632786 4.808508 9.398611 0.116034 -2.686651 -18.081369 -16.854081 77.217993 -82.784510 -62.575545 -0.457457 5.758154 -23.497047 -6.228351 8.543150 -2.847154 20.915521 -8.660759 5.183872 98.235245 -87.201595 -119.671591 -2.898263 8.297664 12.256255 -14.332302 -60.728207 7.125132 -29.300155 71.593489 -29.656337 -2.858630 -4.727986 -2.210031 -0.269847 0.669219 -0.077228 4.220402 -63.279415 14.607897 36.125569 67.738989 28.653037 -15.829978 -9.987803 6.157713 -0.129635 -0.822265 -0.034228
-188.446491 57.454971 -59.280984 158.302801 -11.552288 0.519221 2.347966 7.968670 1.608385 0.111585 0.407133 0.043794 0.194681 0.709722 0.076904 2.144619 7.579782 0.953032 1.436046 20.227397 -2.443267 3.227999 1.734222 -4.936815 4.874714 9.341742 0.092321 -2.274080 -18.625298 -17.848729 74.765419 -82.914492 -59.744072 -0.495474 5.765264 -23.529024 -6.192124 8.511215 -2.795572 21.151931 -8.419718 5.834643 94.923260 -86.946354 -116.798165 -2.845530 8.139825 11.996674 -14.291673 -60.712618 7.156981 -29.353718 71.580960 -29.718831 -2.884216 -4.716411 -2.204039 -0.260483 0.664870 -0.060943 4.190697 -63.263472 14.682458 36.111188 67.750758 28.633596 -15.850281 -9.997860 6.155184 -0.114007 -0.809926 -0.031229
